<svg xmlns="http://www.w3.org/2000/svg" width="1343" height="1588" fill="none">
  <g clip-path="url(#a)">
    <g mask="url(#b)">
      <path fill="#000" fill-rule="evenodd" d="M-549.665 797.5v1194.63H1824.53V-397.131H-549.665V797.5ZM729.438-282.15c40.379 4.264 52.512 5.745 60.617 7.399 4.664.954 19.927 3.516 33.917 5.696 28.529 4.445 62.4 12.024 100.811 22.559 3.103.852 12.009 3.294 19.786 5.425 62.461 17.128 163.981 60.423 226.131 96.433 138.35 80.1722 247.1 176.2311 338.8 299.231 16.81 22.546 48 68.712 57.09 84.506 2.47 4.303 9.73 16.82 16.11 27.819 46.6 80.305 94.36 201.201 112.43 284.684 1.56 7.255 4.56 20.821 6.65 30.148 2.09 9.327 5.18 25.862 6.85 36.743 1.68 10.883 4.26 26.993 5.75 35.802 10.79 64.169 10.79 237.315 0 301.484-1.49 8.81-4.07 24.92-5.76 35.801-1.68 10.88-4.78 27.42-6.89 36.74-2.11 9.33-5.09 22.84-6.62 30.04-17.96 84.25-65.03 203.03-113.8 287.22-5.63 9.71-12.25 21.15-14.72 25.44-80.32 138.87-219.21 276.85-372.37 369.96-73.17 44.47-167.69 86.22-246.831 109.02-12.438 3.58-26.85 7.75-32.035 9.26-5.176 1.5-15.351 4.11-22.606 5.79-7.254 1.68-19.549 4.56-27.322 6.42-7.773 1.85-26.003 5.22-40.512 7.49-14.509 2.26-30.195 4.91-34.859 5.86-8.102 1.67-20.188 3.14-60.617 7.4-23.644 2.5-167.912 2.5-191.556 0-40.421-4.26-52.514-5.73-60.616-7.4-4.664-.95-17.807-3.14-29.207-4.86-11.399-1.71-28.359-4.82-37.686-6.91-9.327-2.08-22.893-5.05-30.148-6.59-90.554-19.29-218.264-71.47-307.1197-125.48-108.1047-65.71-213.8093-156.7-281.7163-242.49-3.628-4.58-8.746-10.92-11.378-14.08-77.797-93.48-159.194-249.11-192.226-367.52-18.094-64.87-23.205-88.5-34.844-161.111-5.864-36.577-6.96-55.628-7.867-136.61-.985-88.077 1.193-130.064 8.891-171.469.964-5.182 3.11-18.324 4.769-29.207 1.66-10.881 4.744-27.416 6.855-36.743 2.11-9.327 5.102-22.893 6.647-30.148 57.311-268.98 247.969-528.7786 500.8693-682.504 89.0207-54.11 214.9227-105.57 307.1197-125.53 7.255-1.57 20.821-4.543 30.148-6.604 9.327-2.064 26.287-5.15 37.686-6.861 11.4-1.711 24.543-3.872 29.207-4.803 7.749-1.545 17.363-2.749 58.411-7.317 20.573-2.287 172.361-2.393 193.761-.133ZM563.94 24.8342c-15.142 8.0095-14.066.0322-14.65 108.6528-.459 85.118-.162 97.536 2.445 102.58 8.463 16.364 34.951 17.748 45.374 2.371 5.34-7.881 5.571-196.478.251-204.599-7.244-11.0545-22.018-15.0345-33.42-9.0048Zm288.554 41.0992c-6.869 3.5715-7.705 4.8449-18.832 28.7323-4.102 8.8083-11.013 23.6473-15.358 32.9743-4.344 9.327-10.29 22.046-13.213 28.264-42.695 90.836-43.757 94.041-35.293 106.48 6.633 9.746 13.774 14.113 23.07 14.113 13.416 0 15.585-2.947 38.163-51.816 9.726-21.056 17.169-37.085 24.062-51.818 3.393-7.255 8.916-19.126 12.271-26.381 3.358-7.254 9.897-21.203 14.534-30.999 10.205-21.5628 10.51-31.99 1.225-41.8652-9.964-10.5992-20.123-13.1486-30.629-7.6844Zm-577.997 4.18c-25.466 11.3312-24.26 18.4529 18.542 109.5846 44.78 95.342 43.773 93.408 50.98 97.803 19.572 11.933 46.854-16.9 35.294-37.302-1.019-1.799-16.789-35.468-35.041-74.819-44.053-94.9698-42.374-91.7904-50.592-95.7099-8.293-3.9544-9.353-3.9302-19.183.4433ZM1076.36 144.54c-2.64 1.437-8.49 7.553-12.99 13.584-4.49 6.033-12.97 17.33-18.85 25.102-5.87 7.773-17.36 23.035-25.51 33.917-8.17 10.882-17.22 22.752-20.136 26.38-13.485 16.838-58.133 77.546-60.766 82.652-10.329 19.958 19.02 41.133 39.477 28.49 3.559-2.195 20.698-23.071 40.605-49.462 105.58-139.927 101.17-133.463 98.95-145.277-2.76-14.787-25.85-23.5-40.78-15.386ZM41.2621 149.997c-22.1494 13.408-21.5933 14.739 40.3054 96.511 20.2085 26.696 46.9785 62.174 59.4865 78.833 30.45 40.56 43.889 46.957 61.925 29.474 14.937-14.475 14.861-14.642-40.207-87.739-23.423-31.09-44.077-58.648-45.897-61.239-1.82-2.591-6.058-8.2-9.416-12.466-3.359-4.266-12.242-15.784-19.7411-25.594-18.07-23.643-29.5275-28.027-46.4558-17.78ZM532.851 389.54c-59.358 2.607-97.93 5.268-126.245 8.709-9.328 1.134-22.895 2.78-30.15 3.659-62.48 7.565-104.886 16.79-130.956 28.492-5.701 2.559-13.332 5.82-16.96 7.249-3.626 1.428-10.658 4.968-15.628 7.87-4.968 2.9-9.479 5.274-10.026 5.274-8.341 0-45.621 36.209-54.134 52.583-13.611 26.171-12.543-12.265-12.518 450.81.025 456.494-.767 425.264 11.345 447.994 33.89 63.59 125.116 115.99 246.497 141.6 4.509.96 11.44 2.61 15.4 3.67 10.372 2.79 38.14 6.43 93.227 12.22 34.369 3.61 114.92 3.63 154.511.03 67.229-6.1 90.031-8.95 113.514-14.13 9.075-2.02 22.437-4.97 29.69-6.58 13.389-2.97 58.734-17.36 62.182-19.74 1.036-.71 8.668-4.15 16.958-7.65 8.291-3.51 18.042-8.2 21.67-10.42 3.626-2.22 12.58-7.5 19.902-11.74 37.112-21.46 69.215-52.43 81.52-78.61 12.42-26.47 12.25-25.55 12.6-65.36.43-49.32-.07-48.61 39.96-57.22 24.74-5.33 36.35-8.39 39.15-10.34 1.04-.71 6.56-2.8 12.25-4.62 97.71-31.22 166.37-127.14 190.21-265.69 1.08-6.22 3.66-20.212 5.75-31.093 10.89-56.777 12.39-156.381 2.86-191.254-15.2-55.644-29.47-82.737-61.26-116.449-43.6-46.209-95.91-66.08-181.59-68.976l-37.45-1.266-4.48-5.213c-4.84-5.622-4.58-2.806-5.4-61.532-.53-37.312-15.906-64.889-45.778-82.085-4.89-2.812-10.168-6.127-11.713-7.363-5.198-4.136-39.248-17.728-56.938-22.73-22.792-6.444-56.513-12.776-94.749-17.79-6.218-.814-13.426-1.994-16.017-2.621-9.323-2.255-90.232-8.482-124.363-9.572-19.171-.612-44.185-1.448-55.585-1.856-11.4-.408-46.165.374-77.256 1.74Zm173.354 59.292c12.436 1.032 29.819 2.7 38.627 3.706 8.809 1.006 24.072 2.71 33.918 3.788 54.696 5.98 52.051 5.53 102.692 17.471 39.46 9.304 59.648 22.519 67.371 44.093 4.863 13.596 7.025 34.711 8.033 78.215 1.423 61.716 3.196 63.254 63.094 54.421 164.42-24.245 252.73 80.24 230.15 272.278-4.85 41.261-7.73 60.627-11.66 78.196-2.19 9.85-4.42 20.02-4.93 22.61-25.7 129.42-90.31 193.57-213.43 211.89-10.8 1.6-22.391 2.92-25.749 2.92-6.837 0-22.499 6.16-27.778 10.93-8.502 7.7-9.308 13.49-9.738 70.09-.456 58.66-.94 61.77-12.088 77.97-17.664 25.68-70.203 58.41-118.86 74.04-37.571 12.08-36.391 11.75-65.95 17.31-97.919 18.38-243.19 20.64-323.527 5.03-48.128-9.36-63.125-12.6-70.287-15.17-3.628-1.3-13.378-4.27-21.67-6.58-8.29-2.32-15.922-4.85-16.957-5.61-1.037-.77-6.75-3.19-12.699-5.38-47.422-17.47-103.46-58.84-116.566-86.06l-4.519-9.38V542.181l5.653-10.229c21.108-38.19 95.365-63.925 223.287-77.384 8.809-.926 25.167-2.646 36.352-3.82 52.001-5.459 191.481-6.54 247.231-1.916Zm-162.989 21.897c-2.591.417-19.974 1.601-38.628 2.632-55.443 3.063-108.762 8.302-135.669 13.329-39.592 7.396-52.042 10.362-70.39 16.769-41.05 14.333-56.776 27.519-56.79 47.62-.027 32.466 27.845 45.026 107.395 48.403 72.566 3.08 127.077 5.757 158.902 7.797 54.785 3.515 118.77 1.852 221.722-5.768 13.99-1.034 34.766-2.384 46.165-2.994 17.65-.948 38.505-4.303 75.371-12.132 29.395-6.24 61.199-23.126 66.223-35.158 10.718-25.66-8.53-47.673-51.149-58.476-38.765-9.827-71.732-14.145-148.858-19.505-25.773-1.79-166.211-3.82-174.294-2.517Zm492.734 247.068c-50.239 6.723-72.644 17.658-78.164 38.138-1.384 5.14-1.854 70.046-1.491 207.766l.524 200.289 4.701 8.38c19.49 34.68 111.86 16.11 159.89-32.15 15.14-15.22 47.38-61.91 47.38-68.62 0-.39 2.52-6.05 5.6-12.57 4.78-10.12 11.39-28.18 18.83-51.43 12.9-40.247 14.99-116.376 4.89-177.202-7.92-47.731-36.52-85.833-75.49-100.559-6.2-2.349-13.25-5.052-15.64-6.001-13.09-5.199-52.36-8.538-71.03-6.041Zm47.77 59.159c52.29 16.529 74.58 80.639 60.39 173.751-14.39 94.593-76.42 181.193-124.83 174.293l-4.06-.58-.55-163.931c-.36-108.532.11-166.207 1.4-170.665 2.41-8.405 8.77-11.508 32.13-15.69 7.12-1.272 27.75.366 35.52 2.822Z" clip-rule="evenodd"/>
    </g>
  </g>s
  <style>
    @media (prefers-color-scheme:dark){
        path {
            fill: #fff
        }
    }
  </style>

</svg>